<svg xmlns="http://www.w3.org/2000/svg" viewBox="0 0 675.4 150.59"><defs><style>.cls-1{fill:#fc0;}</style></defs><g id="Layer_2" data-name="Layer 2"><polygon class="cls-1" points="41.88 32.56 7.92 124.65 104.65 108.01 41.88 32.56"/><path class="cls-1" d="M674.51,1055.85l39.86-108.1,73.69,88.57ZM717.68,967l-28.18,76.42,80.26-13.81Z" transform="translate(-649.04 -947.75)"/><polygon class="cls-1" points="48.65 150.59 150.18 102.21 0 135 48.65 150.59"/></g><g id="Layer_3" data-name="Layer 3"><path class="cls-1" d="M881.93,1052.24v26h-41V974.46h57.24c40.52,0,58.23,14.91,58.23,38.6,0,26-17.7,39.18-58.23,39.18Zm31.82-39c0-5-3.45-8-15.59-8H881.93v16.36h16.23c12.47,0,15.59-3.21,15.59-8.33Z" transform="translate(-649.04 -947.75)"/><path class="cls-1" d="M1022.16,973c38.38,0,64.62,20.61,64.62,53.36,0,35.23-25.41,53.36-64.62,53.36-36.25,0-64.95-18.13-64.95-53.36C957.21,993.17,985.91,973,1022.16,973Zm0,73.53c14.27,0,22.8-7.45,22.8-20.17,0-12-8.71-20.19-22.8-20.19-13.78,0-23,8-23,20.19C999.2,1038.94,1008.38,1046.53,1022.16,1046.53Z" transform="translate(-649.04 -947.75)"/><path class="cls-1" d="M1202.74,1008.23h-41.17c-.49-4.68-7.21-6.58-16.56-6.58-11.14,0-15.26,1.47-15.26,5.12,0,3.22,5.09,3.36,16.4,4.09,47.57,2.93,58.06,13.75,58.06,35.53,0,22.37-20.5,33.33-58.22,33.33-37.07,0-57.09-12.88-58.39-35.38h41c.33,4.39,5.09,6.73,17.39,6.73,13.94,0,16.4-1.17,16.4-5.12,0-3.07-6.56-3.36-16.24-3.94-43.13-2.93-57.24-13.16-57.24-34.65,0-20.33,21.32-34.36,56.1-34.36C1183.22,973,1201.76,986.3,1202.74,1008.23Z" transform="translate(-649.04 -947.75)"/><path class="cls-1" d="M1324.44,974.46v103.8h-41V1044.2H1250.3v34.06h-41V974.46h41v36.11h33.13V974.46Z" transform="translate(-649.04 -947.75)"/></g></svg>